Coordinates
version=1
nRows=26
nColumns=24
inDegrees=yes

Units are S.I. units (second, meters, Newtons, ...)
Angles are in degrees.

endheader
time	pelvis_tilt	pelvis_list	pelvis_rotation	pelvis_tx	pelvis_ty	pelvis_tz	hip_flexion_r	hip_adduction_r	hip_rotation_r	knee_angle_r	ankle_angle_r	subtalar_angle_r	mtp_angle_r	hip_flexion_l	hip_adduction_l	hip_rotation_l	knee_angle_l	ankle_angle_l	subtalar_angle_l	mtp_angle_l	lumbar_extension	lumbar_bending	lumbar_rotation
      1.26650000	      1.15641391	      3.31311843	     -3.29285452	      0.16576888	      0.90790200	      0.31361976	     15.70700208	     -7.35356858	     -9.63607079	    -73.17127211	     -2.93325107	      4.31727432	      8.86002559	     12.08313001	      7.36073302	     -2.04015435	    -21.60864190	     10.47347425	     -9.96337129	      0.31000506	     -7.35296395	     -7.54011188	      3.05705607
      1.27066667	      1.19237396	      3.14308434	     -3.17495517	      0.17104714	      0.90915893	      0.31342749	     16.25996783	     -7.12849124	     -9.73400397	    -72.72655862	     -2.43346208	      4.12055685	      8.66764231	     11.39136814	      7.22980352	     -1.87886959	    -21.07783081	     10.55745938	     -9.85882119	      0.31736390	     -7.41734710	     -7.32775070	      2.71754026
      1.27483333	      1.20562160	      2.97129879	     -3.05529082	      0.17628414	      0.91034263	      0.31323194	     16.82871038	     -6.89517659	     -9.82487659	    -72.22753193	     -1.90971723	      3.93342411	      8.47962562	     10.73848820	      7.09023633	     -1.73206432	    -20.56525745	     10.61675925	     -9.75220680	      0.32786703	     -7.46529905	     -7.10575201	      2.48913495
      1.27900000	      1.20964993	      2.79633359	     -2.93351339	      0.18148963	      0.91148078	      0.31305109	     17.39353474	     -6.64863930	     -9.90629676	    -71.66559502	     -1.37737133	      3.75905577	      8.37219332	     10.10355687	      6.94093542	     -1.59163769	    -20.05992768	     10.64910699	     -9.63555246	      0.33722677	     -7.51822760	     -6.88339588	      2.32662060
      1.28316667	      1.24093370	      2.63796389	     -2.80245022	      0.18674112	      0.91264326	      0.31281717	     17.90173139	     -6.44023949	    -10.00886352	    -71.03376642	     -0.88846483	      3.62870295	      7.87816755	      9.41578990	      6.81570424	     -1.43530400	    -19.50311695	     10.67334011	     -9.54220104	      0.38354637	     -7.57845054	     -6.65555712	      1.91678871
      1.28733333	      1.27120661	      2.42764719	     -2.65913831	      0.19196052	      0.91380281	      0.31262721	     18.37400237	     -6.15320545	    -10.11311752	    -70.29842806	     -0.41068715	      3.51440094	      7.79777455	      8.74983914	      6.62168346	     -1.28956921	    -18.99320639	     10.71905393	     -9.41869570	      0.39587926	     -7.64777347	     -6.41424305	      1.84482052
      1.29150000	      1.34336833	      2.24194331	     -2.52000329	      0.19721002	      0.91498579	      0.31239520	     18.78335211	     -5.91403795	    -10.22780467	    -69.50718713	      0.01812698	      3.41985250	      7.67027561	      8.01528005	      6.45790503	     -1.14875799	    -18.42877049	     10.76740491	     -9.28976348	      0.41743671	     -7.75835877	     -6.15809489	      1.61085342
      1.29566667	      1.39657437	      2.04933012	     -2.36775592	      0.20243156	      0.91610243	      0.31216319	     19.19307689	     -5.66040979	    -10.34266231	    -68.65246447	      0.45739183	      3.33520658	      7.53329772	      7.31417310	      6.28174321	     -1.00112451	    -17.88318178	     10.79204211	     -9.16393008	      0.44339128	     -7.85373261	     -5.90720102	      1.37082037
      1.29983333	      1.45861271	      1.85645537	     -2.20948338	      0.20764194	      0.91719279	      0.31192385	     19.57169409	     -5.40866315	    -10.46263700	    -67.73220300	      0.88232353	      3.25922593	      7.40110185	      6.60625108	      6.10142738	     -0.85865436	    -17.33602770	     10.81206292	     -9.03657946	      0.47138496	     -7.96114096	     -5.65383126	      1.14072974
      1.30400000	      1.52654585	      1.66242805	     -2.04441632	      0.21285163	      0.91824694	      0.31167536	     19.92170343	     -5.15842308	    -10.58846339	    -66.74950297	      1.28943462	      3.18757794	      7.27129058	      5.89336095	      5.91627497	     -0.71897244	    -16.78829818	     10.82967282	     -8.90778457	      0.50206820	     -8.07222105	     -5.39612761	      0.90915492
      1.30816667	      1.57723871	      1.46171247	     -1.86525676	      0.21803333	      0.91923434	      0.31142718	     20.26806555	     -4.89761942	    -10.71923776	    -65.70099097	      1.70764803	      3.11879956	      7.18436533	      5.21908439	      5.71531806	     -0.59178339	    -16.27185896	     10.81520542	     -8.77685027	      0.52476944	     -8.16573309	     -5.13867124	      0.72629671
      1.31233333	      1.65303140	      1.26973928	     -1.68705295	      0.22322871	      0.92020869	      0.31116055	     20.56665268	     -4.65450642	    -10.85435483	    -64.59465363	      2.07833070	      3.04401238	      7.09717615	      4.50587634	      5.52420992	     -0.46114017	    -15.72796084	     10.82508680	     -8.63650663	      0.54921675	     -8.28550409	     -4.87481144	      0.51134625
      1.31650000	      1.76587134	      1.10144897	     -1.51422964	      0.22842466	      0.92117403	      0.31088652	     20.81202872	     -4.44299989	    -10.98136104	    -63.44191959	      2.37890990	      2.95540102	      6.92789869	      3.73791425	      5.35928080	     -0.32113026	    -15.14996191	     10.87605972	     -8.49377946	      0.59799485	     -8.45365505	     -4.63981886	      0.19071839
      1.32066667	      1.84828679	      0.91783934	     -1.32409043	      0.23360552	      0.92204681	      0.31060801	     21.06391726	     -4.21181304	    -11.12036489	    -62.22282623	      2.69586035	      2.85987793	      6.77296156	      3.02780779	      5.16891982	     -0.19546548	    -14.61628879	     10.89315883	     -8.35233744	      0.64515731	     -8.58184380	     -4.38580913	     -0.04604201
      1.32483333	      1.93425405	      0.74311572	     -1.12889168	      0.23877552	      0.92286477	      0.31032446	     21.29422420	     -3.99230162	    -11.25967132	    -60.95209214	      2.98203602	      2.74761279	      6.62121640	      2.31902949	      4.98380103	     -0.07212869	    -14.08748901	     10.91297563	     -8.20541552	      0.69387204	     -8.71338566	     -4.14287651	     -0.28253338
      1.32900000	      2.02127578	      0.57661928	     -0.92876208	      0.24394497	      0.92361791	      0.31004354	     21.50518383	     -3.78206731	    -11.39903078	    -59.63116058	      3.23996629	      2.61538726	      6.46352581	      1.61478547	      4.80259307	      0.05013548	    -13.56688650	     10.93631561	     -8.05323569	      0.74613344	     -8.84627482	     -3.91026598	     -0.52466783
      1.33316667	      2.09142035	      0.40459942	     -0.71222027	      0.24909857	      0.92429524	      0.30974575	     21.70896489	     -3.56829119	    -11.55003887	    -58.24856096	      3.48883406	      2.47549660	      6.35127219	      0.95041578	      4.60851211	      0.16655648	    -13.08444105	     10.93603337	     -7.90691813	      0.78408412	     -8.95863552	     -3.66970353	     -0.72300142
      1.33733333	      2.17801374	      0.25325970	     -0.50180133	      0.25425611	      0.92492146	      0.30945280	     21.88309521	     -3.37775780	    -11.69211824	    -56.82834154	      3.68581572	      2.29779747	      6.23883909	      0.26113912	      4.43463965	      0.28499828	    -12.58495923	     10.96316860	     -7.74773779	      0.82291008	     -9.08942450	     -3.44914137	     -0.95147725
      1.34150000	      2.25803433	      0.11214888	     -0.28652643	      0.25941299	      0.92547267	      0.30915086	     22.04700200	     -3.19976930	    -11.83300411	    -55.36371041	      3.84350547	      2.09479269	      6.12170745	     -0.41429270	      4.26838957	      0.40456752	    -12.09636658	     10.99955819	     -7.58792138	      0.86382363	     -9.21079956	     -3.23863626	     -1.19328327
      1.34566667	      2.33626319	     -0.01882429	     -0.06710072	      0.26456727	      0.92595358	      0.30885088	     22.19504547	     -3.03304745	    -11.97396636	    -53.85479790	      3.97167298	      1.86944054	      6.00281740	     -1.08173622	      4.10779673	      0.52495705	    -11.61653003	     11.03840053	     -7.42734062	      0.90544078	     -9.33017918	     -3.03800281	     -1.43580781
      1.34983333	      2.40214556	     -0.12623287	      0.15429193	      0.26972131	      0.92633857	      0.30854119	     22.34566789	     -2.89539948	    -12.11130316	    -52.31988761	      4.05683461	      1.62821200	      5.27272075	     -1.72954429	      3.96868402	      0.63238381	    -11.14477188	     11.09557209	     -7.24595013	      1.16839014	     -9.42634923	     -2.86683602	     -1.97289537
      1.35400000	      2.47269207	     -0.24439401	      0.38967143	      0.27486205	      0.92667852	      0.30822802	     22.46180800	     -2.74509147	    -12.26274387	    -50.72167145	      4.14820531	      1.36311693	      5.17798497	     -2.36758315	      3.81390443	      0.77692058	    -10.70394326	     11.14033877	     -7.10427731	      1.20402180	     -9.54323923	     -2.68028532	     -2.01458241
      1.35816667	      2.54098016	     -0.34197199	      0.61361985	      0.28002122	      0.92694660	      0.30792007	     22.56790639	     -2.61472315	    -12.39651155	    -49.09324937	      4.17393976	      1.06341846	      5.07253079	     -3.00785357	      3.67814171	      0.90008207	    -10.25353461	     11.19062340	     -6.94880359	      1.24237048	     -9.65059024	     -2.51901514	     -2.21646505
      1.36233333	      2.60223486	     -0.43001958	      0.84230394	      0.28518399	      0.92713996	      0.30761514	     22.66337357	     -2.49425811	    -12.53249207	    -47.42822946	      4.16843519	      0.74679769	      4.95262708	     -3.63406465	      3.54797623	      1.03013592	     -9.81571107	     11.25596749	     -6.79308587	      1.28492452	     -9.75109023	     -2.36972501	     -2.47007468
      1.36650000	      2.66230116	     -0.49092121	      1.06122717	      0.29034692	      0.92724943	      0.30731881	     22.75233476	     -2.39830908	    -12.64705123	    -45.74616711	      4.13048161	      0.39900676	      4.78171117	     -4.26046200	      3.44568057	      1.16121521	     -9.37516989	     11.34347856	     -6.63121474	      1.34486861	     -9.84773781	     -2.25177059	     -2.77443027
      1.37066667	      2.70218416	     -0.55361546	      1.29513476	      0.29551361	      0.92727986	      0.30701217	     22.83721573	     -2.30479710	    -12.77938382	    -44.02007700	      4.08916945	      0.07579705	      4.62239214	     -4.84711729	      3.33559304	      1.30141977	     -8.97042301	     11.41314965	     -6.47904684	      1.39908665	     -9.92397761	     -2.12796121	     -3.02720571
